<mxfile host="app.diagrams.net" agent="Mozilla/5.0 (X11; Linux x86_64; rv:138.0) Gecko/20100101 Firefox/138.0" version="27.1.3">
  <diagram name="Page-1" id="NJ3bJq6OFTAaOYSWZV62">
    <mxGraphModel dx="1426" dy="754" grid="1" gridSize="10" guides="1" tooltips="1" connect="1" arrows="1" fold="1" page="1" pageScale="1" pageWidth="850" pageHeight="1100" math="0" shadow="0">
      <root>
        <mxCell id="0" />
        <mxCell id="1" parent="0" />
        <mxCell id="VThvGhGydYFepj7SWts7-1" value="" style="rounded=0;whiteSpace=wrap;html=1;" vertex="1" parent="1">
          <mxGeometry x="270" y="100" width="100" height="100" as="geometry" />
        </mxCell>
        <mxCell id="VThvGhGydYFepj7SWts7-2" value="List" style="text;html=1;align=center;verticalAlign=middle;whiteSpace=wrap;rounded=0;" vertex="1" parent="1">
          <mxGeometry x="290" y="100" width="60" height="30" as="geometry" />
        </mxCell>
        <mxCell id="VThvGhGydYFepj7SWts7-3" value="head" style="rounded=0;whiteSpace=wrap;html=1;" vertex="1" parent="1">
          <mxGeometry x="295" y="132.5" width="50" height="25" as="geometry" />
        </mxCell>
        <mxCell id="VThvGhGydYFepj7SWts7-4" value="tail" style="rounded=0;whiteSpace=wrap;html=1;" vertex="1" parent="1">
          <mxGeometry x="295" y="165" width="50" height="25" as="geometry" />
        </mxCell>
        <mxCell id="VThvGhGydYFepj7SWts7-5" value="" style="rounded=0;whiteSpace=wrap;html=1;" vertex="1" parent="1">
          <mxGeometry x="420" y="100" width="100" height="100" as="geometry" />
        </mxCell>
        <mxCell id="VThvGhGydYFepj7SWts7-6" value="Node" style="text;html=1;align=center;verticalAlign=middle;whiteSpace=wrap;rounded=0;" vertex="1" parent="1">
          <mxGeometry x="440" y="100" width="60" height="30" as="geometry" />
        </mxCell>
        <mxCell id="VThvGhGydYFepj7SWts7-7" value="data" style="rounded=0;whiteSpace=wrap;html=1;" vertex="1" parent="1">
          <mxGeometry x="445" y="132.5" width="50" height="25" as="geometry" />
        </mxCell>
        <mxCell id="VThvGhGydYFepj7SWts7-8" value="next" style="rounded=0;whiteSpace=wrap;html=1;" vertex="1" parent="1">
          <mxGeometry x="445" y="165" width="50" height="25" as="geometry" />
        </mxCell>
        <mxCell id="VThvGhGydYFepj7SWts7-9" value="" style="rounded=0;whiteSpace=wrap;html=1;" vertex="1" parent="1">
          <mxGeometry x="50" y="330" width="100" height="100" as="geometry" />
        </mxCell>
        <mxCell id="VThvGhGydYFepj7SWts7-10" value="List" style="text;html=1;align=center;verticalAlign=middle;whiteSpace=wrap;rounded=0;" vertex="1" parent="1">
          <mxGeometry x="70" y="330" width="60" height="30" as="geometry" />
        </mxCell>
        <mxCell id="VThvGhGydYFepj7SWts7-15" style="edgeStyle=orthogonalEdgeStyle;rounded=0;orthogonalLoop=1;jettySize=auto;html=1;entryX=0;entryY=0.25;entryDx=0;entryDy=0;" edge="1" parent="1" source="VThvGhGydYFepj7SWts7-11" target="VThvGhGydYFepj7SWts7-13">
          <mxGeometry relative="1" as="geometry" />
        </mxCell>
        <mxCell id="VThvGhGydYFepj7SWts7-11" value="head" style="rounded=0;whiteSpace=wrap;html=1;" vertex="1" parent="1">
          <mxGeometry x="75" y="362.5" width="50" height="25" as="geometry" />
        </mxCell>
        <mxCell id="VThvGhGydYFepj7SWts7-14" style="edgeStyle=orthogonalEdgeStyle;rounded=0;orthogonalLoop=1;jettySize=auto;html=1;" edge="1" parent="1" source="VThvGhGydYFepj7SWts7-12" target="VThvGhGydYFepj7SWts7-13">
          <mxGeometry relative="1" as="geometry" />
        </mxCell>
        <mxCell id="VThvGhGydYFepj7SWts7-12" value="tail" style="rounded=0;whiteSpace=wrap;html=1;" vertex="1" parent="1">
          <mxGeometry x="75" y="395" width="50" height="25" as="geometry" />
        </mxCell>
        <mxCell id="VThvGhGydYFepj7SWts7-13" value="nullptr" style="rounded=0;whiteSpace=wrap;html=1;" vertex="1" parent="1">
          <mxGeometry x="190" y="362.5" width="50" height="40" as="geometry" />
        </mxCell>
        <mxCell id="VThvGhGydYFepj7SWts7-27" style="edgeStyle=orthogonalEdgeStyle;rounded=0;orthogonalLoop=1;jettySize=auto;html=1;entryX=0;entryY=0.5;entryDx=0;entryDy=0;" edge="1" parent="1" source="VThvGhGydYFepj7SWts7-16" target="VThvGhGydYFepj7SWts7-23">
          <mxGeometry relative="1" as="geometry" />
        </mxCell>
        <mxCell id="VThvGhGydYFepj7SWts7-16" value="" style="rounded=0;whiteSpace=wrap;html=1;" vertex="1" parent="1">
          <mxGeometry x="350" y="322.5" width="100" height="100" as="geometry" />
        </mxCell>
        <mxCell id="VThvGhGydYFepj7SWts7-17" value="List" style="text;html=1;align=center;verticalAlign=middle;whiteSpace=wrap;rounded=0;" vertex="1" parent="1">
          <mxGeometry x="370" y="322.5" width="60" height="30" as="geometry" />
        </mxCell>
        <mxCell id="VThvGhGydYFepj7SWts7-18" value="head" style="rounded=0;whiteSpace=wrap;html=1;" vertex="1" parent="1">
          <mxGeometry x="375" y="355" width="50" height="25" as="geometry" />
        </mxCell>
        <mxCell id="VThvGhGydYFepj7SWts7-34" style="edgeStyle=orthogonalEdgeStyle;rounded=0;orthogonalLoop=1;jettySize=auto;html=1;entryX=0;entryY=0.75;entryDx=0;entryDy=0;" edge="1" parent="1" source="VThvGhGydYFepj7SWts7-19" target="VThvGhGydYFepj7SWts7-23">
          <mxGeometry relative="1" as="geometry" />
        </mxCell>
        <mxCell id="VThvGhGydYFepj7SWts7-19" value="tail" style="rounded=0;whiteSpace=wrap;html=1;" vertex="1" parent="1">
          <mxGeometry x="375" y="387.5" width="50" height="25" as="geometry" />
        </mxCell>
        <mxCell id="VThvGhGydYFepj7SWts7-21" style="edgeStyle=orthogonalEdgeStyle;rounded=0;orthogonalLoop=1;jettySize=auto;html=1;" edge="1" parent="1" source="VThvGhGydYFepj7SWts7-20" target="VThvGhGydYFepj7SWts7-13">
          <mxGeometry relative="1" as="geometry" />
        </mxCell>
        <mxCell id="VThvGhGydYFepj7SWts7-20" value="it.p" style="rounded=0;whiteSpace=wrap;html=1;" vertex="1" parent="1">
          <mxGeometry x="80" y="250" width="60" height="30" as="geometry" />
        </mxCell>
        <mxCell id="VThvGhGydYFepj7SWts7-33" style="edgeStyle=orthogonalEdgeStyle;rounded=0;orthogonalLoop=1;jettySize=auto;html=1;entryX=0;entryY=0.5;entryDx=0;entryDy=0;" edge="1" parent="1" source="VThvGhGydYFepj7SWts7-22" target="VThvGhGydYFepj7SWts7-32">
          <mxGeometry relative="1" as="geometry" />
        </mxCell>
        <mxCell id="VThvGhGydYFepj7SWts7-22" value="it.p" style="rounded=0;whiteSpace=wrap;html=1;" vertex="1" parent="1">
          <mxGeometry x="360" y="260" width="60" height="30" as="geometry" />
        </mxCell>
        <mxCell id="VThvGhGydYFepj7SWts7-23" value="" style="rounded=0;whiteSpace=wrap;html=1;" vertex="1" parent="1">
          <mxGeometry x="495" y="320" width="100" height="100" as="geometry" />
        </mxCell>
        <mxCell id="VThvGhGydYFepj7SWts7-24" value="Node" style="text;html=1;align=center;verticalAlign=middle;whiteSpace=wrap;rounded=0;" vertex="1" parent="1">
          <mxGeometry x="515" y="320" width="60" height="30" as="geometry" />
        </mxCell>
        <mxCell id="VThvGhGydYFepj7SWts7-25" value="data" style="rounded=0;whiteSpace=wrap;html=1;" vertex="1" parent="1">
          <mxGeometry x="520" y="352.5" width="50" height="25" as="geometry" />
        </mxCell>
        <mxCell id="VThvGhGydYFepj7SWts7-26" value="next" style="rounded=0;whiteSpace=wrap;html=1;" vertex="1" parent="1">
          <mxGeometry x="520" y="385" width="50" height="25" as="geometry" />
        </mxCell>
        <mxCell id="VThvGhGydYFepj7SWts7-32" value="nullptr" style="rounded=0;whiteSpace=wrap;html=1;" vertex="1" parent="1">
          <mxGeometry x="490" y="260" width="50" height="40" as="geometry" />
        </mxCell>
        <mxCell id="VThvGhGydYFepj7SWts7-39" value="it.p" style="rounded=0;whiteSpace=wrap;html=1;" vertex="1" parent="1">
          <mxGeometry x="915" y="251" width="60" height="30" as="geometry" />
        </mxCell>
        <mxCell id="VThvGhGydYFepj7SWts7-40" style="edgeStyle=orthogonalEdgeStyle;rounded=0;orthogonalLoop=1;jettySize=auto;html=1;entryX=0;entryY=0.5;entryDx=0;entryDy=0;" edge="1" parent="1" source="VThvGhGydYFepj7SWts7-41" target="VThvGhGydYFepj7SWts7-46">
          <mxGeometry relative="1" as="geometry" />
        </mxCell>
        <mxCell id="VThvGhGydYFepj7SWts7-41" value="" style="rounded=0;whiteSpace=wrap;html=1;" vertex="1" parent="1">
          <mxGeometry x="870" y="322.25" width="100" height="100" as="geometry" />
        </mxCell>
        <mxCell id="VThvGhGydYFepj7SWts7-42" value="List" style="text;html=1;align=center;verticalAlign=middle;whiteSpace=wrap;rounded=0;" vertex="1" parent="1">
          <mxGeometry x="890" y="322.25" width="60" height="30" as="geometry" />
        </mxCell>
        <mxCell id="VThvGhGydYFepj7SWts7-43" value="head" style="rounded=0;whiteSpace=wrap;html=1;" vertex="1" parent="1">
          <mxGeometry x="895" y="354.75" width="50" height="25" as="geometry" />
        </mxCell>
        <mxCell id="VThvGhGydYFepj7SWts7-44" style="edgeStyle=orthogonalEdgeStyle;rounded=0;orthogonalLoop=1;jettySize=auto;html=1;entryX=0;entryY=0.75;entryDx=0;entryDy=0;" edge="1" parent="1" source="VThvGhGydYFepj7SWts7-45" target="VThvGhGydYFepj7SWts7-46">
          <mxGeometry relative="1" as="geometry" />
        </mxCell>
        <mxCell id="VThvGhGydYFepj7SWts7-45" value="tail" style="rounded=0;whiteSpace=wrap;html=1;" vertex="1" parent="1">
          <mxGeometry x="895" y="387.25" width="50" height="25" as="geometry" />
        </mxCell>
        <mxCell id="VThvGhGydYFepj7SWts7-46" value="" style="rounded=0;whiteSpace=wrap;html=1;" vertex="1" parent="1">
          <mxGeometry x="1015" y="319.75" width="100" height="100" as="geometry" />
        </mxCell>
        <mxCell id="VThvGhGydYFepj7SWts7-47" value="Node" style="text;html=1;align=center;verticalAlign=middle;whiteSpace=wrap;rounded=0;" vertex="1" parent="1">
          <mxGeometry x="1035" y="319.75" width="60" height="30" as="geometry" />
        </mxCell>
        <mxCell id="VThvGhGydYFepj7SWts7-48" value="data" style="rounded=0;whiteSpace=wrap;html=1;" vertex="1" parent="1">
          <mxGeometry x="1040" y="352.25" width="50" height="25" as="geometry" />
        </mxCell>
        <mxCell id="VThvGhGydYFepj7SWts7-49" value="next" style="rounded=0;whiteSpace=wrap;html=1;" vertex="1" parent="1">
          <mxGeometry x="1040" y="384.75" width="50" height="25" as="geometry" />
        </mxCell>
        <mxCell id="VThvGhGydYFepj7SWts7-50" style="edgeStyle=orthogonalEdgeStyle;rounded=0;orthogonalLoop=1;jettySize=auto;html=1;entryX=0.383;entryY=0.108;entryDx=0;entryDy=0;entryPerimeter=0;" edge="1" parent="1" source="VThvGhGydYFepj7SWts7-39" target="VThvGhGydYFepj7SWts7-47">
          <mxGeometry relative="1" as="geometry" />
        </mxCell>
        <mxCell id="VThvGhGydYFepj7SWts7-61" style="edgeStyle=orthogonalEdgeStyle;rounded=0;orthogonalLoop=1;jettySize=auto;html=1;entryX=0;entryY=0.5;entryDx=0;entryDy=0;" edge="1" parent="1" source="VThvGhGydYFepj7SWts7-62" target="VThvGhGydYFepj7SWts7-67">
          <mxGeometry relative="1" as="geometry" />
        </mxCell>
        <mxCell id="VThvGhGydYFepj7SWts7-62" value="" style="rounded=0;whiteSpace=wrap;html=1;" vertex="1" parent="1">
          <mxGeometry x="1380" y="312.25" width="100" height="100" as="geometry" />
        </mxCell>
        <mxCell id="VThvGhGydYFepj7SWts7-63" value="List" style="text;html=1;align=center;verticalAlign=middle;whiteSpace=wrap;rounded=0;" vertex="1" parent="1">
          <mxGeometry x="1400" y="312.25" width="60" height="30" as="geometry" />
        </mxCell>
        <mxCell id="VThvGhGydYFepj7SWts7-64" value="head" style="rounded=0;whiteSpace=wrap;html=1;" vertex="1" parent="1">
          <mxGeometry x="1405" y="344.75" width="50" height="25" as="geometry" />
        </mxCell>
        <mxCell id="VThvGhGydYFepj7SWts7-75" style="edgeStyle=orthogonalEdgeStyle;rounded=0;orthogonalLoop=1;jettySize=auto;html=1;entryX=0.5;entryY=1;entryDx=0;entryDy=0;" edge="1" parent="1" source="VThvGhGydYFepj7SWts7-66" target="VThvGhGydYFepj7SWts7-71">
          <mxGeometry relative="1" as="geometry">
            <Array as="points">
              <mxPoint x="1430" y="430" />
              <mxPoint x="1720" y="430" />
            </Array>
          </mxGeometry>
        </mxCell>
        <mxCell id="VThvGhGydYFepj7SWts7-66" value="tail" style="rounded=0;whiteSpace=wrap;html=1;" vertex="1" parent="1">
          <mxGeometry x="1405" y="377.25" width="50" height="25" as="geometry" />
        </mxCell>
        <mxCell id="VThvGhGydYFepj7SWts7-67" value="" style="rounded=0;whiteSpace=wrap;html=1;" vertex="1" parent="1">
          <mxGeometry x="1525" y="309.75" width="100" height="100" as="geometry" />
        </mxCell>
        <mxCell id="VThvGhGydYFepj7SWts7-68" value="Node" style="text;html=1;align=center;verticalAlign=middle;whiteSpace=wrap;rounded=0;" vertex="1" parent="1">
          <mxGeometry x="1545" y="309.75" width="60" height="30" as="geometry" />
        </mxCell>
        <mxCell id="VThvGhGydYFepj7SWts7-69" value="data" style="rounded=0;whiteSpace=wrap;html=1;" vertex="1" parent="1">
          <mxGeometry x="1550" y="342.25" width="50" height="25" as="geometry" />
        </mxCell>
        <mxCell id="VThvGhGydYFepj7SWts7-70" value="next" style="rounded=0;whiteSpace=wrap;html=1;" vertex="1" parent="1">
          <mxGeometry x="1550" y="374.75" width="50" height="25" as="geometry" />
        </mxCell>
        <mxCell id="VThvGhGydYFepj7SWts7-71" value="" style="rounded=0;whiteSpace=wrap;html=1;" vertex="1" parent="1">
          <mxGeometry x="1670" y="309.75" width="100" height="100" as="geometry" />
        </mxCell>
        <mxCell id="VThvGhGydYFepj7SWts7-72" value="Node" style="text;html=1;align=center;verticalAlign=middle;whiteSpace=wrap;rounded=0;" vertex="1" parent="1">
          <mxGeometry x="1690" y="309.75" width="60" height="30" as="geometry" />
        </mxCell>
        <mxCell id="VThvGhGydYFepj7SWts7-73" value="data" style="rounded=0;whiteSpace=wrap;html=1;" vertex="1" parent="1">
          <mxGeometry x="1695" y="342.25" width="50" height="25" as="geometry" />
        </mxCell>
        <mxCell id="VThvGhGydYFepj7SWts7-74" value="next" style="rounded=0;whiteSpace=wrap;html=1;" vertex="1" parent="1">
          <mxGeometry x="1695" y="374.75" width="50" height="25" as="geometry" />
        </mxCell>
        <mxCell id="VThvGhGydYFepj7SWts7-81" style="edgeStyle=orthogonalEdgeStyle;rounded=0;orthogonalLoop=1;jettySize=auto;html=1;" edge="1" parent="1" source="VThvGhGydYFepj7SWts7-80" target="VThvGhGydYFepj7SWts7-68">
          <mxGeometry relative="1" as="geometry" />
        </mxCell>
        <mxCell id="VThvGhGydYFepj7SWts7-80" value="it.p" style="rounded=0;whiteSpace=wrap;html=1;" vertex="1" parent="1">
          <mxGeometry x="1560" y="201" width="60" height="30" as="geometry" />
        </mxCell>
        <mxCell id="VThvGhGydYFepj7SWts7-82" value="" style="rounded=0;whiteSpace=wrap;html=1;" vertex="1" parent="1">
          <mxGeometry x="60" y="520" width="100" height="100" as="geometry" />
        </mxCell>
        <mxCell id="VThvGhGydYFepj7SWts7-83" value="List" style="text;html=1;align=center;verticalAlign=middle;whiteSpace=wrap;rounded=0;" vertex="1" parent="1">
          <mxGeometry x="80" y="520" width="60" height="30" as="geometry" />
        </mxCell>
        <mxCell id="VThvGhGydYFepj7SWts7-91" style="edgeStyle=orthogonalEdgeStyle;rounded=0;orthogonalLoop=1;jettySize=auto;html=1;" edge="1" parent="1" source="VThvGhGydYFepj7SWts7-84">
          <mxGeometry relative="1" as="geometry">
            <mxPoint x="220" y="565" as="targetPoint" />
          </mxGeometry>
        </mxCell>
        <mxCell id="VThvGhGydYFepj7SWts7-84" value="head" style="rounded=0;whiteSpace=wrap;html=1;" vertex="1" parent="1">
          <mxGeometry x="85" y="552.5" width="50" height="25" as="geometry" />
        </mxCell>
        <mxCell id="VThvGhGydYFepj7SWts7-90" style="edgeStyle=orthogonalEdgeStyle;rounded=0;orthogonalLoop=1;jettySize=auto;html=1;entryX=0;entryY=0.5;entryDx=0;entryDy=0;" edge="1" parent="1" source="VThvGhGydYFepj7SWts7-85" target="VThvGhGydYFepj7SWts7-86">
          <mxGeometry relative="1" as="geometry" />
        </mxCell>
        <mxCell id="VThvGhGydYFepj7SWts7-85" value="tail" style="rounded=0;whiteSpace=wrap;html=1;" vertex="1" parent="1">
          <mxGeometry x="85" y="585" width="50" height="25" as="geometry" />
        </mxCell>
        <mxCell id="VThvGhGydYFepj7SWts7-86" value="" style="rounded=0;whiteSpace=wrap;html=1;" vertex="1" parent="1">
          <mxGeometry x="210" y="520" width="100" height="100" as="geometry" />
        </mxCell>
        <mxCell id="VThvGhGydYFepj7SWts7-87" value="Node" style="text;html=1;align=center;verticalAlign=middle;whiteSpace=wrap;rounded=0;" vertex="1" parent="1">
          <mxGeometry x="230" y="520" width="60" height="30" as="geometry" />
        </mxCell>
        <mxCell id="VThvGhGydYFepj7SWts7-88" value="data" style="rounded=0;whiteSpace=wrap;html=1;" vertex="1" parent="1">
          <mxGeometry x="235" y="552.5" width="50" height="25" as="geometry" />
        </mxCell>
        <mxCell id="VThvGhGydYFepj7SWts7-89" value="next" style="rounded=0;whiteSpace=wrap;html=1;" vertex="1" parent="1">
          <mxGeometry x="235" y="585" width="50" height="25" as="geometry" />
        </mxCell>
        <mxCell id="VThvGhGydYFepj7SWts7-93" style="edgeStyle=orthogonalEdgeStyle;rounded=0;orthogonalLoop=1;jettySize=auto;html=1;entryX=0.5;entryY=0;entryDx=0;entryDy=0;" edge="1" parent="1" source="VThvGhGydYFepj7SWts7-92" target="VThvGhGydYFepj7SWts7-87">
          <mxGeometry relative="1" as="geometry" />
        </mxCell>
        <mxCell id="VThvGhGydYFepj7SWts7-92" value="ret.p" style="rounded=0;whiteSpace=wrap;html=1;" vertex="1" parent="1">
          <mxGeometry x="230" y="440" width="60" height="30" as="geometry" />
        </mxCell>
        <mxCell id="VThvGhGydYFepj7SWts7-94" value="" style="rounded=0;whiteSpace=wrap;html=1;" vertex="1" parent="1">
          <mxGeometry x="360" y="510" width="100" height="100" as="geometry" />
        </mxCell>
        <mxCell id="VThvGhGydYFepj7SWts7-95" value="List" style="text;html=1;align=center;verticalAlign=middle;whiteSpace=wrap;rounded=0;" vertex="1" parent="1">
          <mxGeometry x="380" y="510" width="60" height="30" as="geometry" />
        </mxCell>
        <mxCell id="VThvGhGydYFepj7SWts7-96" style="edgeStyle=orthogonalEdgeStyle;rounded=0;orthogonalLoop=1;jettySize=auto;html=1;" edge="1" parent="1" source="VThvGhGydYFepj7SWts7-97">
          <mxGeometry relative="1" as="geometry">
            <mxPoint x="520" y="555" as="targetPoint" />
          </mxGeometry>
        </mxCell>
        <mxCell id="VThvGhGydYFepj7SWts7-97" value="head" style="rounded=0;whiteSpace=wrap;html=1;" vertex="1" parent="1">
          <mxGeometry x="385" y="542.5" width="50" height="25" as="geometry" />
        </mxCell>
        <mxCell id="VThvGhGydYFepj7SWts7-112" style="edgeStyle=orthogonalEdgeStyle;rounded=0;orthogonalLoop=1;jettySize=auto;html=1;entryX=0.5;entryY=1;entryDx=0;entryDy=0;" edge="1" parent="1" source="VThvGhGydYFepj7SWts7-99" target="VThvGhGydYFepj7SWts7-108">
          <mxGeometry relative="1" as="geometry">
            <Array as="points">
              <mxPoint x="410" y="620" />
              <mxPoint x="545" y="620" />
              <mxPoint x="545" y="625" />
              <mxPoint x="705" y="625" />
            </Array>
          </mxGeometry>
        </mxCell>
        <mxCell id="VThvGhGydYFepj7SWts7-99" value="tail" style="rounded=0;whiteSpace=wrap;html=1;" vertex="1" parent="1">
          <mxGeometry x="385" y="575" width="50" height="25" as="geometry" />
        </mxCell>
        <mxCell id="VThvGhGydYFepj7SWts7-100" value="" style="rounded=0;whiteSpace=wrap;html=1;" vertex="1" parent="1">
          <mxGeometry x="510" y="510" width="100" height="100" as="geometry" />
        </mxCell>
        <mxCell id="VThvGhGydYFepj7SWts7-101" value="Node" style="text;html=1;align=center;verticalAlign=middle;whiteSpace=wrap;rounded=0;" vertex="1" parent="1">
          <mxGeometry x="530" y="510" width="60" height="30" as="geometry" />
        </mxCell>
        <mxCell id="VThvGhGydYFepj7SWts7-102" value="data" style="rounded=0;whiteSpace=wrap;html=1;" vertex="1" parent="1">
          <mxGeometry x="535" y="542.5" width="50" height="25" as="geometry" />
        </mxCell>
        <mxCell id="VThvGhGydYFepj7SWts7-103" value="next" style="rounded=0;whiteSpace=wrap;html=1;" vertex="1" parent="1">
          <mxGeometry x="535" y="575" width="50" height="25" as="geometry" />
        </mxCell>
        <mxCell id="VThvGhGydYFepj7SWts7-104" style="edgeStyle=orthogonalEdgeStyle;rounded=0;orthogonalLoop=1;jettySize=auto;html=1;entryX=0.5;entryY=0;entryDx=0;entryDy=0;" edge="1" parent="1" source="VThvGhGydYFepj7SWts7-105" target="VThvGhGydYFepj7SWts7-101">
          <mxGeometry relative="1" as="geometry" />
        </mxCell>
        <mxCell id="VThvGhGydYFepj7SWts7-105" value="ret.p" style="rounded=0;whiteSpace=wrap;html=1;" vertex="1" parent="1">
          <mxGeometry x="530" y="430" width="60" height="30" as="geometry" />
        </mxCell>
        <mxCell id="VThvGhGydYFepj7SWts7-107" style="edgeStyle=orthogonalEdgeStyle;rounded=0;orthogonalLoop=1;jettySize=auto;html=1;entryX=0;entryY=0.75;entryDx=0;entryDy=0;" edge="1" parent="1" target="VThvGhGydYFepj7SWts7-108">
          <mxGeometry relative="1" as="geometry">
            <mxPoint x="585" y="585" as="sourcePoint" />
          </mxGeometry>
        </mxCell>
        <mxCell id="VThvGhGydYFepj7SWts7-108" value="" style="rounded=0;whiteSpace=wrap;html=1;" vertex="1" parent="1">
          <mxGeometry x="655" y="505" width="100" height="100" as="geometry" />
        </mxCell>
        <mxCell id="VThvGhGydYFepj7SWts7-109" value="Node" style="text;html=1;align=center;verticalAlign=middle;whiteSpace=wrap;rounded=0;" vertex="1" parent="1">
          <mxGeometry x="675" y="505" width="60" height="30" as="geometry" />
        </mxCell>
        <mxCell id="VThvGhGydYFepj7SWts7-110" value="data" style="rounded=0;whiteSpace=wrap;html=1;" vertex="1" parent="1">
          <mxGeometry x="680" y="537.5" width="50" height="25" as="geometry" />
        </mxCell>
        <mxCell id="VThvGhGydYFepj7SWts7-111" value="next" style="rounded=0;whiteSpace=wrap;html=1;" vertex="1" parent="1">
          <mxGeometry x="680" y="570" width="50" height="25" as="geometry" />
        </mxCell>
        <mxCell id="VThvGhGydYFepj7SWts7-113" value="" style="rounded=0;whiteSpace=wrap;html=1;" vertex="1" parent="1">
          <mxGeometry x="840" y="490" width="100" height="100" as="geometry" />
        </mxCell>
        <mxCell id="VThvGhGydYFepj7SWts7-114" value="List" style="text;html=1;align=center;verticalAlign=middle;whiteSpace=wrap;rounded=0;" vertex="1" parent="1">
          <mxGeometry x="860" y="490" width="60" height="30" as="geometry" />
        </mxCell>
        <mxCell id="VThvGhGydYFepj7SWts7-115" style="edgeStyle=orthogonalEdgeStyle;rounded=0;orthogonalLoop=1;jettySize=auto;html=1;" edge="1" parent="1" source="VThvGhGydYFepj7SWts7-116">
          <mxGeometry relative="1" as="geometry">
            <mxPoint x="1000" y="535" as="targetPoint" />
          </mxGeometry>
        </mxCell>
        <mxCell id="VThvGhGydYFepj7SWts7-116" value="head" style="rounded=0;whiteSpace=wrap;html=1;" vertex="1" parent="1">
          <mxGeometry x="865" y="522.5" width="50" height="25" as="geometry" />
        </mxCell>
        <mxCell id="VThvGhGydYFepj7SWts7-117" style="edgeStyle=orthogonalEdgeStyle;rounded=0;orthogonalLoop=1;jettySize=auto;html=1;entryX=0.5;entryY=1;entryDx=0;entryDy=0;" edge="1" parent="1" source="VThvGhGydYFepj7SWts7-118" target="VThvGhGydYFepj7SWts7-124">
          <mxGeometry relative="1" as="geometry">
            <Array as="points">
              <mxPoint x="890" y="600" />
              <mxPoint x="1025" y="600" />
              <mxPoint x="1025" y="605" />
              <mxPoint x="1185" y="605" />
            </Array>
          </mxGeometry>
        </mxCell>
        <mxCell id="VThvGhGydYFepj7SWts7-118" value="tail" style="rounded=0;whiteSpace=wrap;html=1;" vertex="1" parent="1">
          <mxGeometry x="865" y="555" width="50" height="25" as="geometry" />
        </mxCell>
        <mxCell id="VThvGhGydYFepj7SWts7-119" value="" style="rounded=0;whiteSpace=wrap;html=1;" vertex="1" parent="1">
          <mxGeometry x="990" y="490" width="100" height="100" as="geometry" />
        </mxCell>
        <mxCell id="VThvGhGydYFepj7SWts7-120" value="Node" style="text;html=1;align=center;verticalAlign=middle;whiteSpace=wrap;rounded=0;" vertex="1" parent="1">
          <mxGeometry x="1010" y="490" width="60" height="30" as="geometry" />
        </mxCell>
        <mxCell id="VThvGhGydYFepj7SWts7-121" value="data" style="rounded=0;whiteSpace=wrap;html=1;" vertex="1" parent="1">
          <mxGeometry x="1015" y="522.5" width="50" height="25" as="geometry" />
        </mxCell>
        <mxCell id="VThvGhGydYFepj7SWts7-122" value="next" style="rounded=0;whiteSpace=wrap;html=1;" vertex="1" parent="1">
          <mxGeometry x="1015" y="555" width="50" height="25" as="geometry" />
        </mxCell>
        <mxCell id="VThvGhGydYFepj7SWts7-123" style="edgeStyle=orthogonalEdgeStyle;rounded=0;orthogonalLoop=1;jettySize=auto;html=1;entryX=0;entryY=0.75;entryDx=0;entryDy=0;" edge="1" parent="1" target="VThvGhGydYFepj7SWts7-124">
          <mxGeometry relative="1" as="geometry">
            <mxPoint x="1065" y="565" as="sourcePoint" />
          </mxGeometry>
        </mxCell>
        <mxCell id="VThvGhGydYFepj7SWts7-124" value="" style="rounded=0;whiteSpace=wrap;html=1;" vertex="1" parent="1">
          <mxGeometry x="1135" y="485" width="100" height="100" as="geometry" />
        </mxCell>
        <mxCell id="VThvGhGydYFepj7SWts7-125" value="Node" style="text;html=1;align=center;verticalAlign=middle;whiteSpace=wrap;rounded=0;" vertex="1" parent="1">
          <mxGeometry x="1155" y="485" width="60" height="30" as="geometry" />
        </mxCell>
        <mxCell id="VThvGhGydYFepj7SWts7-126" value="data" style="rounded=0;whiteSpace=wrap;html=1;" vertex="1" parent="1">
          <mxGeometry x="1160" y="517.5" width="50" height="25" as="geometry" />
        </mxCell>
        <mxCell id="VThvGhGydYFepj7SWts7-127" value="next" style="rounded=0;whiteSpace=wrap;html=1;" vertex="1" parent="1">
          <mxGeometry x="1160" y="550" width="50" height="25" as="geometry" />
        </mxCell>
        <mxCell id="VThvGhGydYFepj7SWts7-129" style="edgeStyle=orthogonalEdgeStyle;rounded=0;orthogonalLoop=1;jettySize=auto;html=1;" edge="1" parent="1" source="VThvGhGydYFepj7SWts7-128" target="VThvGhGydYFepj7SWts7-125">
          <mxGeometry relative="1" as="geometry" />
        </mxCell>
        <mxCell id="VThvGhGydYFepj7SWts7-128" value="ret.p" style="rounded=0;whiteSpace=wrap;html=1;" vertex="1" parent="1">
          <mxGeometry x="1150" y="419.75" width="60" height="30" as="geometry" />
        </mxCell>
        <mxCell id="VThvGhGydYFepj7SWts7-130" style="edgeStyle=orthogonalEdgeStyle;rounded=0;orthogonalLoop=1;jettySize=auto;html=1;entryX=0;entryY=0.5;entryDx=0;entryDy=0;" edge="1" parent="1" source="VThvGhGydYFepj7SWts7-131" target="VThvGhGydYFepj7SWts7-136">
          <mxGeometry relative="1" as="geometry" />
        </mxCell>
        <mxCell id="VThvGhGydYFepj7SWts7-131" value="" style="rounded=0;whiteSpace=wrap;html=1;" vertex="1" parent="1">
          <mxGeometry x="1870" y="339.13" width="100" height="100" as="geometry" />
        </mxCell>
        <mxCell id="VThvGhGydYFepj7SWts7-132" value="List" style="text;html=1;align=center;verticalAlign=middle;whiteSpace=wrap;rounded=0;" vertex="1" parent="1">
          <mxGeometry x="1890" y="339.13" width="60" height="30" as="geometry" />
        </mxCell>
        <mxCell id="VThvGhGydYFepj7SWts7-133" value="head" style="rounded=0;whiteSpace=wrap;html=1;" vertex="1" parent="1">
          <mxGeometry x="1895" y="371.63" width="50" height="25" as="geometry" />
        </mxCell>
        <mxCell id="VThvGhGydYFepj7SWts7-134" style="edgeStyle=orthogonalEdgeStyle;rounded=0;orthogonalLoop=1;jettySize=auto;html=1;entryX=0.5;entryY=1;entryDx=0;entryDy=0;" edge="1" parent="1" source="VThvGhGydYFepj7SWts7-135" target="VThvGhGydYFepj7SWts7-140">
          <mxGeometry relative="1" as="geometry">
            <Array as="points">
              <mxPoint x="1920" y="456.88" />
              <mxPoint x="2210" y="456.88" />
            </Array>
          </mxGeometry>
        </mxCell>
        <mxCell id="VThvGhGydYFepj7SWts7-135" value="tail" style="rounded=0;whiteSpace=wrap;html=1;" vertex="1" parent="1">
          <mxGeometry x="1895" y="404.13" width="50" height="25" as="geometry" />
        </mxCell>
        <mxCell id="VThvGhGydYFepj7SWts7-136" value="" style="rounded=0;whiteSpace=wrap;html=1;" vertex="1" parent="1">
          <mxGeometry x="2015" y="336.63" width="100" height="100" as="geometry" />
        </mxCell>
        <mxCell id="VThvGhGydYFepj7SWts7-137" value="Node" style="text;html=1;align=center;verticalAlign=middle;whiteSpace=wrap;rounded=0;" vertex="1" parent="1">
          <mxGeometry x="2035" y="336.63" width="60" height="30" as="geometry" />
        </mxCell>
        <mxCell id="VThvGhGydYFepj7SWts7-138" value="data" style="rounded=0;whiteSpace=wrap;html=1;" vertex="1" parent="1">
          <mxGeometry x="2040" y="369.13" width="50" height="25" as="geometry" />
        </mxCell>
        <mxCell id="VThvGhGydYFepj7SWts7-139" value="next" style="rounded=0;whiteSpace=wrap;html=1;" vertex="1" parent="1">
          <mxGeometry x="2040" y="401.63" width="50" height="25" as="geometry" />
        </mxCell>
        <mxCell id="VThvGhGydYFepj7SWts7-140" value="" style="rounded=0;whiteSpace=wrap;html=1;" vertex="1" parent="1">
          <mxGeometry x="2160" y="336.63" width="100" height="100" as="geometry" />
        </mxCell>
        <mxCell id="VThvGhGydYFepj7SWts7-141" value="Node" style="text;html=1;align=center;verticalAlign=middle;whiteSpace=wrap;rounded=0;" vertex="1" parent="1">
          <mxGeometry x="2180" y="336.63" width="60" height="30" as="geometry" />
        </mxCell>
        <mxCell id="VThvGhGydYFepj7SWts7-142" value="data" style="rounded=0;whiteSpace=wrap;html=1;" vertex="1" parent="1">
          <mxGeometry x="2185" y="369.13" width="50" height="25" as="geometry" />
        </mxCell>
        <mxCell id="VThvGhGydYFepj7SWts7-143" value="next" style="rounded=0;whiteSpace=wrap;html=1;" vertex="1" parent="1">
          <mxGeometry x="2185" y="401.63" width="50" height="25" as="geometry" />
        </mxCell>
        <mxCell id="VThvGhGydYFepj7SWts7-144" style="edgeStyle=orthogonalEdgeStyle;rounded=0;orthogonalLoop=1;jettySize=auto;html=1;" edge="1" parent="1" source="VThvGhGydYFepj7SWts7-145" target="VThvGhGydYFepj7SWts7-137">
          <mxGeometry relative="1" as="geometry" />
        </mxCell>
        <mxCell id="VThvGhGydYFepj7SWts7-145" value="it.p" style="rounded=0;whiteSpace=wrap;html=1;" vertex="1" parent="1">
          <mxGeometry x="2050" y="227.88" width="60" height="30" as="geometry" />
        </mxCell>
        <mxCell id="VThvGhGydYFepj7SWts7-146" value="" style="rounded=0;whiteSpace=wrap;html=1;" vertex="1" parent="1">
          <mxGeometry x="2140" y="210.38" width="100" height="100" as="geometry" />
        </mxCell>
        <mxCell id="VThvGhGydYFepj7SWts7-147" value="Node" style="text;html=1;align=center;verticalAlign=middle;whiteSpace=wrap;rounded=0;" vertex="1" parent="1">
          <mxGeometry x="2160" y="210.38" width="60" height="30" as="geometry" />
        </mxCell>
        <mxCell id="VThvGhGydYFepj7SWts7-148" value="data" style="rounded=0;whiteSpace=wrap;html=1;" vertex="1" parent="1">
          <mxGeometry x="2165" y="242.88" width="50" height="25" as="geometry" />
        </mxCell>
        <mxCell id="VThvGhGydYFepj7SWts7-152" style="edgeStyle=orthogonalEdgeStyle;rounded=0;orthogonalLoop=1;jettySize=auto;html=1;entryX=0.5;entryY=0;entryDx=0;entryDy=0;" edge="1" parent="1" source="VThvGhGydYFepj7SWts7-149" target="VThvGhGydYFepj7SWts7-141">
          <mxGeometry relative="1" as="geometry" />
        </mxCell>
        <mxCell id="VThvGhGydYFepj7SWts7-149" value="next" style="rounded=0;whiteSpace=wrap;html=1;" vertex="1" parent="1">
          <mxGeometry x="2165" y="275.38" width="50" height="25" as="geometry" />
        </mxCell>
        <mxCell id="VThvGhGydYFepj7SWts7-150" style="edgeStyle=orthogonalEdgeStyle;rounded=0;orthogonalLoop=1;jettySize=auto;html=1;entryX=0.02;entryY=0.603;entryDx=0;entryDy=0;entryPerimeter=0;" edge="1" parent="1" source="VThvGhGydYFepj7SWts7-70" target="VThvGhGydYFepj7SWts7-71">
          <mxGeometry relative="1" as="geometry" />
        </mxCell>
        <mxCell id="VThvGhGydYFepj7SWts7-151" style="edgeStyle=orthogonalEdgeStyle;rounded=0;orthogonalLoop=1;jettySize=auto;html=1;entryX=0;entryY=0.585;entryDx=0;entryDy=0;entryPerimeter=0;" edge="1" parent="1" source="VThvGhGydYFepj7SWts7-139" target="VThvGhGydYFepj7SWts7-146">
          <mxGeometry relative="1" as="geometry">
            <Array as="points">
              <mxPoint x="2130" y="413.88" />
              <mxPoint x="2130" y="268.88" />
            </Array>
          </mxGeometry>
        </mxCell>
        <mxCell id="VThvGhGydYFepj7SWts7-158" style="edgeStyle=orthogonalEdgeStyle;rounded=0;orthogonalLoop=1;jettySize=auto;html=1;" edge="1" parent="1" source="VThvGhGydYFepj7SWts7-157" target="VThvGhGydYFepj7SWts7-146">
          <mxGeometry relative="1" as="geometry" />
        </mxCell>
        <mxCell id="VThvGhGydYFepj7SWts7-157" value="ret.p" style="rounded=0;whiteSpace=wrap;html=1;" vertex="1" parent="1">
          <mxGeometry x="2310" y="240.38" width="60" height="30" as="geometry" />
        </mxCell>
        <mxCell id="VThvGhGydYFepj7SWts7-159" value="" style="rounded=0;whiteSpace=wrap;html=1;fillColor=none;dashed=1;" vertex="1" parent="1">
          <mxGeometry x="1505" y="290" width="295" height="170" as="geometry" />
        </mxCell>
        <mxCell id="VThvGhGydYFepj7SWts7-160" value="" style="rounded=0;whiteSpace=wrap;html=1;fillColor=none;dashed=1;" vertex="1" parent="1">
          <mxGeometry x="1980" y="329.13" width="295" height="170" as="geometry" />
        </mxCell>
        <mxCell id="VThvGhGydYFepj7SWts7-161" value="Start" style="text;html=1;align=center;verticalAlign=middle;whiteSpace=wrap;rounded=0;" vertex="1" parent="1">
          <mxGeometry x="1565" y="130" width="60" height="30" as="geometry" />
        </mxCell>
        <mxCell id="VThvGhGydYFepj7SWts7-162" value="Finish" style="text;html=1;align=center;verticalAlign=middle;whiteSpace=wrap;rounded=0;" vertex="1" parent="1">
          <mxGeometry x="2095" y="157.5" width="60" height="30" as="geometry" />
        </mxCell>
        <mxCell id="VThvGhGydYFepj7SWts7-163" style="edgeStyle=orthogonalEdgeStyle;rounded=0;orthogonalLoop=1;jettySize=auto;html=1;entryX=0;entryY=0.5;entryDx=0;entryDy=0;" edge="1" parent="1" source="VThvGhGydYFepj7SWts7-164" target="VThvGhGydYFepj7SWts7-169">
          <mxGeometry relative="1" as="geometry" />
        </mxCell>
        <mxCell id="VThvGhGydYFepj7SWts7-164" value="" style="rounded=0;whiteSpace=wrap;html=1;" vertex="1" parent="1">
          <mxGeometry x="1365" y="711.25" width="100" height="100" as="geometry" />
        </mxCell>
        <mxCell id="VThvGhGydYFepj7SWts7-165" value="List" style="text;html=1;align=center;verticalAlign=middle;whiteSpace=wrap;rounded=0;" vertex="1" parent="1">
          <mxGeometry x="1385" y="711.25" width="60" height="30" as="geometry" />
        </mxCell>
        <mxCell id="VThvGhGydYFepj7SWts7-166" value="head" style="rounded=0;whiteSpace=wrap;html=1;" vertex="1" parent="1">
          <mxGeometry x="1390" y="743.75" width="50" height="25" as="geometry" />
        </mxCell>
        <mxCell id="VThvGhGydYFepj7SWts7-167" style="edgeStyle=orthogonalEdgeStyle;rounded=0;orthogonalLoop=1;jettySize=auto;html=1;entryX=0.5;entryY=1;entryDx=0;entryDy=0;" edge="1" parent="1" source="VThvGhGydYFepj7SWts7-168" target="VThvGhGydYFepj7SWts7-173">
          <mxGeometry relative="1" as="geometry">
            <Array as="points">
              <mxPoint x="1415" y="829" />
              <mxPoint x="1705" y="829" />
            </Array>
          </mxGeometry>
        </mxCell>
        <mxCell id="VThvGhGydYFepj7SWts7-168" value="tail" style="rounded=0;whiteSpace=wrap;html=1;" vertex="1" parent="1">
          <mxGeometry x="1390" y="776.25" width="50" height="25" as="geometry" />
        </mxCell>
        <mxCell id="VThvGhGydYFepj7SWts7-169" value="" style="rounded=0;whiteSpace=wrap;html=1;" vertex="1" parent="1">
          <mxGeometry x="1510" y="708.75" width="100" height="100" as="geometry" />
        </mxCell>
        <mxCell id="VThvGhGydYFepj7SWts7-170" value="Node" style="text;html=1;align=center;verticalAlign=middle;whiteSpace=wrap;rounded=0;" vertex="1" parent="1">
          <mxGeometry x="1530" y="708.75" width="60" height="30" as="geometry" />
        </mxCell>
        <mxCell id="VThvGhGydYFepj7SWts7-171" value="data" style="rounded=0;whiteSpace=wrap;html=1;" vertex="1" parent="1">
          <mxGeometry x="1535" y="741.25" width="50" height="25" as="geometry" />
        </mxCell>
        <mxCell id="VThvGhGydYFepj7SWts7-172" value="next" style="rounded=0;whiteSpace=wrap;html=1;" vertex="1" parent="1">
          <mxGeometry x="1535" y="773.75" width="50" height="25" as="geometry" />
        </mxCell>
        <mxCell id="VThvGhGydYFepj7SWts7-173" value="" style="rounded=0;whiteSpace=wrap;html=1;" vertex="1" parent="1">
          <mxGeometry x="1655" y="708.75" width="100" height="100" as="geometry" />
        </mxCell>
        <mxCell id="VThvGhGydYFepj7SWts7-174" value="Node" style="text;html=1;align=center;verticalAlign=middle;whiteSpace=wrap;rounded=0;" vertex="1" parent="1">
          <mxGeometry x="1675" y="708.75" width="60" height="30" as="geometry" />
        </mxCell>
        <mxCell id="VThvGhGydYFepj7SWts7-175" value="data" style="rounded=0;whiteSpace=wrap;html=1;" vertex="1" parent="1">
          <mxGeometry x="1680" y="741.25" width="50" height="25" as="geometry" />
        </mxCell>
        <mxCell id="VThvGhGydYFepj7SWts7-176" value="next" style="rounded=0;whiteSpace=wrap;html=1;" vertex="1" parent="1">
          <mxGeometry x="1680" y="773.75" width="50" height="25" as="geometry" />
        </mxCell>
        <mxCell id="VThvGhGydYFepj7SWts7-177" style="edgeStyle=orthogonalEdgeStyle;rounded=0;orthogonalLoop=1;jettySize=auto;html=1;" edge="1" parent="1" source="VThvGhGydYFepj7SWts7-178" target="VThvGhGydYFepj7SWts7-170">
          <mxGeometry relative="1" as="geometry" />
        </mxCell>
        <mxCell id="VThvGhGydYFepj7SWts7-178" value="it.p" style="rounded=0;whiteSpace=wrap;html=1;" vertex="1" parent="1">
          <mxGeometry x="1545" y="600" width="60" height="30" as="geometry" />
        </mxCell>
        <mxCell id="VThvGhGydYFepj7SWts7-179" style="edgeStyle=orthogonalEdgeStyle;rounded=0;orthogonalLoop=1;jettySize=auto;html=1;entryX=0.02;entryY=0.603;entryDx=0;entryDy=0;entryPerimeter=0;" edge="1" parent="1" source="VThvGhGydYFepj7SWts7-172" target="VThvGhGydYFepj7SWts7-173">
          <mxGeometry relative="1" as="geometry" />
        </mxCell>
        <mxCell id="VThvGhGydYFepj7SWts7-180" value="" style="rounded=0;whiteSpace=wrap;html=1;fillColor=none;dashed=1;" vertex="1" parent="1">
          <mxGeometry x="1490" y="689" width="295" height="170" as="geometry" />
        </mxCell>
        <mxCell id="VThvGhGydYFepj7SWts7-181" value="" style="rounded=0;whiteSpace=wrap;html=1;" vertex="1" parent="1">
          <mxGeometry x="1630" y="552.5" width="100" height="100" as="geometry" />
        </mxCell>
        <mxCell id="VThvGhGydYFepj7SWts7-182" value="Node" style="text;html=1;align=center;verticalAlign=middle;whiteSpace=wrap;rounded=0;" vertex="1" parent="1">
          <mxGeometry x="1650" y="552.5" width="60" height="30" as="geometry" />
        </mxCell>
        <mxCell id="VThvGhGydYFepj7SWts7-183" value="data" style="rounded=0;whiteSpace=wrap;html=1;" vertex="1" parent="1">
          <mxGeometry x="1655" y="585" width="50" height="25" as="geometry" />
        </mxCell>
        <mxCell id="VThvGhGydYFepj7SWts7-184" value="next" style="rounded=0;whiteSpace=wrap;html=1;" vertex="1" parent="1">
          <mxGeometry x="1655" y="617.5" width="50" height="25" as="geometry" />
        </mxCell>
        <mxCell id="VThvGhGydYFepj7SWts7-185" style="edgeStyle=orthogonalEdgeStyle;rounded=0;orthogonalLoop=1;jettySize=auto;html=1;entryX=0;entryY=0.5;entryDx=0;entryDy=0;" edge="1" parent="1" source="VThvGhGydYFepj7SWts7-186" target="VThvGhGydYFepj7SWts7-191">
          <mxGeometry relative="1" as="geometry" />
        </mxCell>
        <mxCell id="VThvGhGydYFepj7SWts7-186" value="" style="rounded=0;whiteSpace=wrap;html=1;" vertex="1" parent="1">
          <mxGeometry x="1360" y="1098.75" width="100" height="100" as="geometry" />
        </mxCell>
        <mxCell id="VThvGhGydYFepj7SWts7-187" value="List" style="text;html=1;align=center;verticalAlign=middle;whiteSpace=wrap;rounded=0;" vertex="1" parent="1">
          <mxGeometry x="1380" y="1098.75" width="60" height="30" as="geometry" />
        </mxCell>
        <mxCell id="VThvGhGydYFepj7SWts7-188" value="head" style="rounded=0;whiteSpace=wrap;html=1;" vertex="1" parent="1">
          <mxGeometry x="1385" y="1131.25" width="50" height="25" as="geometry" />
        </mxCell>
        <mxCell id="VThvGhGydYFepj7SWts7-189" style="edgeStyle=orthogonalEdgeStyle;rounded=0;orthogonalLoop=1;jettySize=auto;html=1;entryX=0.5;entryY=1;entryDx=0;entryDy=0;" edge="1" parent="1" source="VThvGhGydYFepj7SWts7-190" target="VThvGhGydYFepj7SWts7-195">
          <mxGeometry relative="1" as="geometry">
            <Array as="points">
              <mxPoint x="1410" y="1216.5" />
              <mxPoint x="1700" y="1216.5" />
            </Array>
          </mxGeometry>
        </mxCell>
        <mxCell id="VThvGhGydYFepj7SWts7-190" value="tail" style="rounded=0;whiteSpace=wrap;html=1;" vertex="1" parent="1">
          <mxGeometry x="1385" y="1163.75" width="50" height="25" as="geometry" />
        </mxCell>
        <mxCell id="VThvGhGydYFepj7SWts7-191" value="" style="rounded=0;whiteSpace=wrap;html=1;" vertex="1" parent="1">
          <mxGeometry x="1505" y="1096.25" width="100" height="100" as="geometry" />
        </mxCell>
        <mxCell id="VThvGhGydYFepj7SWts7-192" value="Node" style="text;html=1;align=center;verticalAlign=middle;whiteSpace=wrap;rounded=0;" vertex="1" parent="1">
          <mxGeometry x="1525" y="1096.25" width="60" height="30" as="geometry" />
        </mxCell>
        <mxCell id="VThvGhGydYFepj7SWts7-193" value="data" style="rounded=0;whiteSpace=wrap;html=1;" vertex="1" parent="1">
          <mxGeometry x="1530" y="1128.75" width="50" height="25" as="geometry" />
        </mxCell>
        <mxCell id="VThvGhGydYFepj7SWts7-194" value="next" style="rounded=0;whiteSpace=wrap;html=1;" vertex="1" parent="1">
          <mxGeometry x="1530" y="1161.25" width="50" height="25" as="geometry" />
        </mxCell>
        <mxCell id="VThvGhGydYFepj7SWts7-195" value="" style="rounded=0;whiteSpace=wrap;html=1;" vertex="1" parent="1">
          <mxGeometry x="1650" y="1096.25" width="100" height="100" as="geometry" />
        </mxCell>
        <mxCell id="VThvGhGydYFepj7SWts7-196" value="Node" style="text;html=1;align=center;verticalAlign=middle;whiteSpace=wrap;rounded=0;" vertex="1" parent="1">
          <mxGeometry x="1670" y="1096.25" width="60" height="30" as="geometry" />
        </mxCell>
        <mxCell id="VThvGhGydYFepj7SWts7-197" value="data" style="rounded=0;whiteSpace=wrap;html=1;" vertex="1" parent="1">
          <mxGeometry x="1675" y="1128.75" width="50" height="25" as="geometry" />
        </mxCell>
        <mxCell id="VThvGhGydYFepj7SWts7-198" value="next" style="rounded=0;whiteSpace=wrap;html=1;" vertex="1" parent="1">
          <mxGeometry x="1675" y="1161.25" width="50" height="25" as="geometry" />
        </mxCell>
        <mxCell id="VThvGhGydYFepj7SWts7-199" style="edgeStyle=orthogonalEdgeStyle;rounded=0;orthogonalLoop=1;jettySize=auto;html=1;" edge="1" parent="1" source="VThvGhGydYFepj7SWts7-200" target="VThvGhGydYFepj7SWts7-192">
          <mxGeometry relative="1" as="geometry" />
        </mxCell>
        <mxCell id="VThvGhGydYFepj7SWts7-200" value="it.p" style="rounded=0;whiteSpace=wrap;html=1;" vertex="1" parent="1">
          <mxGeometry x="1540" y="987.5" width="60" height="30" as="geometry" />
        </mxCell>
        <mxCell id="VThvGhGydYFepj7SWts7-201" style="edgeStyle=orthogonalEdgeStyle;rounded=0;orthogonalLoop=1;jettySize=auto;html=1;entryX=0.02;entryY=0.603;entryDx=0;entryDy=0;entryPerimeter=0;" edge="1" parent="1" source="VThvGhGydYFepj7SWts7-194" target="VThvGhGydYFepj7SWts7-195">
          <mxGeometry relative="1" as="geometry" />
        </mxCell>
        <mxCell id="VThvGhGydYFepj7SWts7-202" value="" style="rounded=0;whiteSpace=wrap;html=1;fillColor=none;dashed=1;" vertex="1" parent="1">
          <mxGeometry x="1490" y="1063.75" width="295" height="170" as="geometry" />
        </mxCell>
        <mxCell id="VThvGhGydYFepj7SWts7-203" value="" style="rounded=0;whiteSpace=wrap;html=1;" vertex="1" parent="1">
          <mxGeometry x="1625" y="940" width="100" height="100" as="geometry" />
        </mxCell>
        <mxCell id="VThvGhGydYFepj7SWts7-204" value="Node" style="text;html=1;align=center;verticalAlign=middle;whiteSpace=wrap;rounded=0;" vertex="1" parent="1">
          <mxGeometry x="1645" y="940" width="60" height="30" as="geometry" />
        </mxCell>
        <mxCell id="VThvGhGydYFepj7SWts7-205" value="data" style="rounded=0;whiteSpace=wrap;html=1;" vertex="1" parent="1">
          <mxGeometry x="1650" y="972.5" width="50" height="25" as="geometry" />
        </mxCell>
        <mxCell id="VThvGhGydYFepj7SWts7-208" style="edgeStyle=orthogonalEdgeStyle;rounded=0;orthogonalLoop=1;jettySize=auto;html=1;entryX=0.5;entryY=0;entryDx=0;entryDy=0;" edge="1" parent="1" source="VThvGhGydYFepj7SWts7-206" target="VThvGhGydYFepj7SWts7-196">
          <mxGeometry relative="1" as="geometry" />
        </mxCell>
        <mxCell id="VThvGhGydYFepj7SWts7-206" value="next" style="rounded=0;whiteSpace=wrap;html=1;" vertex="1" parent="1">
          <mxGeometry x="1650" y="1005" width="50" height="25" as="geometry" />
        </mxCell>
        <mxCell id="VThvGhGydYFepj7SWts7-209" style="edgeStyle=orthogonalEdgeStyle;rounded=0;orthogonalLoop=1;jettySize=auto;html=1;entryX=0;entryY=0.5;entryDx=0;entryDy=0;" edge="1" parent="1" source="VThvGhGydYFepj7SWts7-210" target="VThvGhGydYFepj7SWts7-215">
          <mxGeometry relative="1" as="geometry" />
        </mxCell>
        <mxCell id="VThvGhGydYFepj7SWts7-210" value="" style="rounded=0;whiteSpace=wrap;html=1;" vertex="1" parent="1">
          <mxGeometry x="1375" y="1478.75" width="100" height="100" as="geometry" />
        </mxCell>
        <mxCell id="VThvGhGydYFepj7SWts7-211" value="List" style="text;html=1;align=center;verticalAlign=middle;whiteSpace=wrap;rounded=0;" vertex="1" parent="1">
          <mxGeometry x="1395" y="1478.75" width="60" height="30" as="geometry" />
        </mxCell>
        <mxCell id="VThvGhGydYFepj7SWts7-212" value="head" style="rounded=0;whiteSpace=wrap;html=1;" vertex="1" parent="1">
          <mxGeometry x="1400" y="1511.25" width="50" height="25" as="geometry" />
        </mxCell>
        <mxCell id="VThvGhGydYFepj7SWts7-213" style="edgeStyle=orthogonalEdgeStyle;rounded=0;orthogonalLoop=1;jettySize=auto;html=1;entryX=0.5;entryY=1;entryDx=0;entryDy=0;" edge="1" parent="1" source="VThvGhGydYFepj7SWts7-214" target="VThvGhGydYFepj7SWts7-219">
          <mxGeometry relative="1" as="geometry">
            <Array as="points">
              <mxPoint x="1425" y="1596.5" />
              <mxPoint x="1715" y="1596.5" />
            </Array>
          </mxGeometry>
        </mxCell>
        <mxCell id="VThvGhGydYFepj7SWts7-214" value="tail" style="rounded=0;whiteSpace=wrap;html=1;" vertex="1" parent="1">
          <mxGeometry x="1400" y="1543.75" width="50" height="25" as="geometry" />
        </mxCell>
        <mxCell id="VThvGhGydYFepj7SWts7-215" value="" style="rounded=0;whiteSpace=wrap;html=1;" vertex="1" parent="1">
          <mxGeometry x="1520" y="1476.25" width="100" height="100" as="geometry" />
        </mxCell>
        <mxCell id="VThvGhGydYFepj7SWts7-216" value="Node" style="text;html=1;align=center;verticalAlign=middle;whiteSpace=wrap;rounded=0;" vertex="1" parent="1">
          <mxGeometry x="1540" y="1476.25" width="60" height="30" as="geometry" />
        </mxCell>
        <mxCell id="VThvGhGydYFepj7SWts7-217" value="data" style="rounded=0;whiteSpace=wrap;html=1;" vertex="1" parent="1">
          <mxGeometry x="1545" y="1508.75" width="50" height="25" as="geometry" />
        </mxCell>
        <mxCell id="VThvGhGydYFepj7SWts7-218" value="next" style="rounded=0;whiteSpace=wrap;html=1;" vertex="1" parent="1">
          <mxGeometry x="1545" y="1541.25" width="50" height="25" as="geometry" />
        </mxCell>
        <mxCell id="VThvGhGydYFepj7SWts7-219" value="" style="rounded=0;whiteSpace=wrap;html=1;" vertex="1" parent="1">
          <mxGeometry x="1665" y="1476.25" width="100" height="100" as="geometry" />
        </mxCell>
        <mxCell id="VThvGhGydYFepj7SWts7-220" value="Node" style="text;html=1;align=center;verticalAlign=middle;whiteSpace=wrap;rounded=0;" vertex="1" parent="1">
          <mxGeometry x="1685" y="1476.25" width="60" height="30" as="geometry" />
        </mxCell>
        <mxCell id="VThvGhGydYFepj7SWts7-221" value="data" style="rounded=0;whiteSpace=wrap;html=1;" vertex="1" parent="1">
          <mxGeometry x="1690" y="1508.75" width="50" height="25" as="geometry" />
        </mxCell>
        <mxCell id="VThvGhGydYFepj7SWts7-222" value="next" style="rounded=0;whiteSpace=wrap;html=1;" vertex="1" parent="1">
          <mxGeometry x="1690" y="1541.25" width="50" height="25" as="geometry" />
        </mxCell>
        <mxCell id="VThvGhGydYFepj7SWts7-223" style="edgeStyle=orthogonalEdgeStyle;rounded=0;orthogonalLoop=1;jettySize=auto;html=1;" edge="1" parent="1" source="VThvGhGydYFepj7SWts7-224" target="VThvGhGydYFepj7SWts7-216">
          <mxGeometry relative="1" as="geometry" />
        </mxCell>
        <mxCell id="VThvGhGydYFepj7SWts7-224" value="it.p" style="rounded=0;whiteSpace=wrap;html=1;" vertex="1" parent="1">
          <mxGeometry x="1555" y="1367.5" width="60" height="30" as="geometry" />
        </mxCell>
        <mxCell id="VThvGhGydYFepj7SWts7-225" style="edgeStyle=orthogonalEdgeStyle;rounded=0;orthogonalLoop=1;jettySize=auto;html=1;entryX=0.17;entryY=1.02;entryDx=0;entryDy=0;entryPerimeter=0;" edge="1" parent="1" source="VThvGhGydYFepj7SWts7-218" target="VThvGhGydYFepj7SWts7-227">
          <mxGeometry relative="1" as="geometry" />
        </mxCell>
        <mxCell id="VThvGhGydYFepj7SWts7-226" value="" style="rounded=0;whiteSpace=wrap;html=1;fillColor=none;dashed=1;" vertex="1" parent="1">
          <mxGeometry x="1505" y="1443.75" width="295" height="170" as="geometry" />
        </mxCell>
        <mxCell id="VThvGhGydYFepj7SWts7-227" value="" style="rounded=0;whiteSpace=wrap;html=1;" vertex="1" parent="1">
          <mxGeometry x="1640" y="1320" width="100" height="100" as="geometry" />
        </mxCell>
        <mxCell id="VThvGhGydYFepj7SWts7-228" value="Node" style="text;html=1;align=center;verticalAlign=middle;whiteSpace=wrap;rounded=0;" vertex="1" parent="1">
          <mxGeometry x="1660" y="1320" width="60" height="30" as="geometry" />
        </mxCell>
        <mxCell id="VThvGhGydYFepj7SWts7-229" value="data" style="rounded=0;whiteSpace=wrap;html=1;" vertex="1" parent="1">
          <mxGeometry x="1665" y="1352.5" width="50" height="25" as="geometry" />
        </mxCell>
        <mxCell id="VThvGhGydYFepj7SWts7-230" style="edgeStyle=orthogonalEdgeStyle;rounded=0;orthogonalLoop=1;jettySize=auto;html=1;entryX=0.5;entryY=0;entryDx=0;entryDy=0;" edge="1" parent="1" source="VThvGhGydYFepj7SWts7-231" target="VThvGhGydYFepj7SWts7-220">
          <mxGeometry relative="1" as="geometry" />
        </mxCell>
        <mxCell id="VThvGhGydYFepj7SWts7-231" value="next" style="rounded=0;whiteSpace=wrap;html=1;" vertex="1" parent="1">
          <mxGeometry x="1665" y="1385" width="50" height="25" as="geometry" />
        </mxCell>
        <mxCell id="VThvGhGydYFepj7SWts7-233" style="edgeStyle=orthogonalEdgeStyle;rounded=0;orthogonalLoop=1;jettySize=auto;html=1;entryX=0;entryY=0.5;entryDx=0;entryDy=0;" edge="1" parent="1" source="VThvGhGydYFepj7SWts7-234" target="VThvGhGydYFepj7SWts7-239">
          <mxGeometry relative="1" as="geometry" />
        </mxCell>
        <mxCell id="VThvGhGydYFepj7SWts7-234" value="" style="rounded=0;whiteSpace=wrap;html=1;" vertex="1" parent="1">
          <mxGeometry x="1382.5" y="1898.75" width="100" height="100" as="geometry" />
        </mxCell>
        <mxCell id="VThvGhGydYFepj7SWts7-235" value="List" style="text;html=1;align=center;verticalAlign=middle;whiteSpace=wrap;rounded=0;" vertex="1" parent="1">
          <mxGeometry x="1402.5" y="1898.75" width="60" height="30" as="geometry" />
        </mxCell>
        <mxCell id="VThvGhGydYFepj7SWts7-236" value="head" style="rounded=0;whiteSpace=wrap;html=1;" vertex="1" parent="1">
          <mxGeometry x="1407.5" y="1931.25" width="50" height="25" as="geometry" />
        </mxCell>
        <mxCell id="VThvGhGydYFepj7SWts7-237" style="edgeStyle=orthogonalEdgeStyle;rounded=0;orthogonalLoop=1;jettySize=auto;html=1;entryX=0.5;entryY=1;entryDx=0;entryDy=0;" edge="1" parent="1" source="VThvGhGydYFepj7SWts7-238" target="VThvGhGydYFepj7SWts7-243">
          <mxGeometry relative="1" as="geometry">
            <Array as="points">
              <mxPoint x="1432.5" y="2016.5" />
              <mxPoint x="1722.5" y="2016.5" />
            </Array>
          </mxGeometry>
        </mxCell>
        <mxCell id="VThvGhGydYFepj7SWts7-238" value="tail" style="rounded=0;whiteSpace=wrap;html=1;" vertex="1" parent="1">
          <mxGeometry x="1407.5" y="1963.75" width="50" height="25" as="geometry" />
        </mxCell>
        <mxCell id="VThvGhGydYFepj7SWts7-239" value="" style="rounded=0;whiteSpace=wrap;html=1;" vertex="1" parent="1">
          <mxGeometry x="1527.5" y="1896.25" width="100" height="100" as="geometry" />
        </mxCell>
        <mxCell id="VThvGhGydYFepj7SWts7-240" value="Node" style="text;html=1;align=center;verticalAlign=middle;whiteSpace=wrap;rounded=0;" vertex="1" parent="1">
          <mxGeometry x="1547.5" y="1896.25" width="60" height="30" as="geometry" />
        </mxCell>
        <mxCell id="VThvGhGydYFepj7SWts7-241" value="data" style="rounded=0;whiteSpace=wrap;html=1;" vertex="1" parent="1">
          <mxGeometry x="1552.5" y="1928.75" width="50" height="25" as="geometry" />
        </mxCell>
        <mxCell id="VThvGhGydYFepj7SWts7-242" value="next" style="rounded=0;whiteSpace=wrap;html=1;" vertex="1" parent="1">
          <mxGeometry x="1552.5" y="1961.25" width="50" height="25" as="geometry" />
        </mxCell>
        <mxCell id="VThvGhGydYFepj7SWts7-243" value="" style="rounded=0;whiteSpace=wrap;html=1;" vertex="1" parent="1">
          <mxGeometry x="1672.5" y="1896.25" width="100" height="100" as="geometry" />
        </mxCell>
        <mxCell id="VThvGhGydYFepj7SWts7-244" value="Node" style="text;html=1;align=center;verticalAlign=middle;whiteSpace=wrap;rounded=0;" vertex="1" parent="1">
          <mxGeometry x="1692.5" y="1896.25" width="60" height="30" as="geometry" />
        </mxCell>
        <mxCell id="VThvGhGydYFepj7SWts7-245" value="data" style="rounded=0;whiteSpace=wrap;html=1;" vertex="1" parent="1">
          <mxGeometry x="1697.5" y="1928.75" width="50" height="25" as="geometry" />
        </mxCell>
        <mxCell id="VThvGhGydYFepj7SWts7-246" value="next" style="rounded=0;whiteSpace=wrap;html=1;" vertex="1" parent="1">
          <mxGeometry x="1697.5" y="1961.25" width="50" height="25" as="geometry" />
        </mxCell>
        <mxCell id="VThvGhGydYFepj7SWts7-247" style="edgeStyle=orthogonalEdgeStyle;rounded=0;orthogonalLoop=1;jettySize=auto;html=1;" edge="1" parent="1" source="VThvGhGydYFepj7SWts7-248" target="VThvGhGydYFepj7SWts7-240">
          <mxGeometry relative="1" as="geometry" />
        </mxCell>
        <mxCell id="VThvGhGydYFepj7SWts7-248" value="it.p" style="rounded=0;whiteSpace=wrap;html=1;" vertex="1" parent="1">
          <mxGeometry x="1562.5" y="1787.5" width="60" height="30" as="geometry" />
        </mxCell>
        <mxCell id="VThvGhGydYFepj7SWts7-249" style="edgeStyle=orthogonalEdgeStyle;rounded=0;orthogonalLoop=1;jettySize=auto;html=1;entryX=0.17;entryY=1.02;entryDx=0;entryDy=0;entryPerimeter=0;" edge="1" parent="1" source="VThvGhGydYFepj7SWts7-242" target="VThvGhGydYFepj7SWts7-251">
          <mxGeometry relative="1" as="geometry" />
        </mxCell>
        <mxCell id="VThvGhGydYFepj7SWts7-250" value="" style="rounded=0;whiteSpace=wrap;html=1;fillColor=none;dashed=1;" vertex="1" parent="1">
          <mxGeometry x="1512.5" y="1863.75" width="295" height="170" as="geometry" />
        </mxCell>
        <mxCell id="VThvGhGydYFepj7SWts7-251" value="" style="rounded=0;whiteSpace=wrap;html=1;" vertex="1" parent="1">
          <mxGeometry x="1647.5" y="1740" width="100" height="100" as="geometry" />
        </mxCell>
        <mxCell id="VThvGhGydYFepj7SWts7-252" value="Node" style="text;html=1;align=center;verticalAlign=middle;whiteSpace=wrap;rounded=0;" vertex="1" parent="1">
          <mxGeometry x="1667.5" y="1740" width="60" height="30" as="geometry" />
        </mxCell>
        <mxCell id="VThvGhGydYFepj7SWts7-253" value="data" style="rounded=0;whiteSpace=wrap;html=1;" vertex="1" parent="1">
          <mxGeometry x="1672.5" y="1772.5" width="50" height="25" as="geometry" />
        </mxCell>
        <mxCell id="VThvGhGydYFepj7SWts7-254" style="edgeStyle=orthogonalEdgeStyle;rounded=0;orthogonalLoop=1;jettySize=auto;html=1;entryX=0.5;entryY=0;entryDx=0;entryDy=0;" edge="1" parent="1" source="VThvGhGydYFepj7SWts7-255" target="VThvGhGydYFepj7SWts7-244">
          <mxGeometry relative="1" as="geometry" />
        </mxCell>
        <mxCell id="VThvGhGydYFepj7SWts7-255" value="next" style="rounded=0;whiteSpace=wrap;html=1;" vertex="1" parent="1">
          <mxGeometry x="1672.5" y="1805" width="50" height="25" as="geometry" />
        </mxCell>
        <mxCell id="VThvGhGydYFepj7SWts7-257" style="edgeStyle=orthogonalEdgeStyle;rounded=0;orthogonalLoop=1;jettySize=auto;html=1;entryX=0.5;entryY=0;entryDx=0;entryDy=0;" edge="1" parent="1" source="VThvGhGydYFepj7SWts7-256" target="VThvGhGydYFepj7SWts7-252">
          <mxGeometry relative="1" as="geometry" />
        </mxCell>
        <mxCell id="VThvGhGydYFepj7SWts7-256" value="ret.p" style="rounded=0;whiteSpace=wrap;html=1;" vertex="1" parent="1">
          <mxGeometry x="1667.5" y="1670" width="60" height="30" as="geometry" />
        </mxCell>
        <mxCell id="VThvGhGydYFepj7SWts7-258" value="&lt;div&gt;auto newnode =std::make_shared&amp;lt;Node&amp;gt;();&lt;/div&gt;&lt;div&gt;newnode-&amp;gt;data = whatever;&lt;/div&gt;&lt;div&gt;newnode-&amp;gt;next = nullptr&lt;/div&gt;" style="text;html=1;align=center;verticalAlign=middle;whiteSpace=wrap;rounded=0;fontSize=17;" vertex="1" parent="1">
          <mxGeometry x="1807.5" y="670" width="432.5" height="60" as="geometry" />
        </mxCell>
        <mxCell id="VThvGhGydYFepj7SWts7-259" value="&lt;div&gt;newnode-&amp;gt;next = it.p-&amp;gt;next;&lt;/div&gt;" style="text;html=1;align=center;verticalAlign=middle;whiteSpace=wrap;rounded=0;" vertex="1" parent="1">
          <mxGeometry x="1810" y="1050" width="370" height="70" as="geometry" />
        </mxCell>
        <mxCell id="VThvGhGydYFepj7SWts7-260" value="&lt;div&gt;it.p-&amp;gt;next = newnode;&lt;/div&gt;" style="text;html=1;align=center;verticalAlign=middle;whiteSpace=wrap;rounded=0;" vertex="1" parent="1">
          <mxGeometry x="1815" y="1436.25" width="370" height="70" as="geometry" />
        </mxCell>
        <mxCell id="VThvGhGydYFepj7SWts7-261" value="&lt;div&gt;return iterator(newnode);&lt;/div&gt;" style="text;html=1;align=center;verticalAlign=middle;whiteSpace=wrap;rounded=0;" vertex="1" parent="1">
          <mxGeometry x="1807.5" y="1810" width="370" height="70" as="geometry" />
        </mxCell>
      </root>
    </mxGraphModel>
  </diagram>
</mxfile>
